{"glyphs":{"0":{"ha":833,"x_min":0,"x_max":0,"o":""},"1":{"ha":833,"x_min":0,"x_max":0,"o":""},"2":{"ha":833,"x_min":0,"x_max":0,"o":""},"3":{"ha":833,"x_min":0,"x_max":0,"o":""},"4":{"ha":833,"x_min":0,"x_max":0,"o":""},"5":{"ha":833,"x_min":0,"x_max":0,"o":""},"6":{"ha":833,"x_min":0,"x_max":0,"o":""},"7":{"ha":833,"x_min":0,"x_max":0,"o":""},"8":{"ha":833,"x_min":0,"x_max":0,"o":""},"9":{"ha":833,"x_min":0,"x_max":0,"o":""}," ":{"ha":833,"x_min":0,"x_max":0,"o":""},"A":{"ha":1039,"x_min":0,"x_max":0,"o":"m 843 501 b 529 993 843 842 631 993 b 192 494 342 993 243 814 b 168 381 182 435 171 392 b 157 342 164 367 160 354 b 28 -1 108 192 28 89 l 264 -1 b 186 193 215 47 192 113 l 188 183 b 185 244 188 199 185 214 l 185 253 b 440 422 190 375 333 422 b 674 274 544 422 651 329 l 771 442 b 189 326 569 613 254 532 b 207 457 193 367 200 410 l 215 494 b 504 826 247 711 413 826 b 821 499 646 826 822 676 b 775 0 822 293 729 107 l 1011 0 b 843 501 914 94 844 294 z "},"B":{"ha":922,"x_min":0,"x_max":0,"o":"m 894 314 b 625 517 893 435 803 496 b 825 703 738 535 822 585 b 496 993 825 944 621 993 b 122 476 314 993 139 871 b 28 10 104 222 28 92 l 264 10 b 144 486 193 79 122 183 b 497 839 165 733 350 839 b 739 704 497 839 739 856 b 497 524 739 539 581 525 l 465 524 b 232 624 322 528 249 604 l 232 429 b 478 501 338 429 326 499 b 807 313 765 499 807 429 b 308 329 801 81 481 22 l 211 154 b 894 314 456 -132 906 -58 z "},"C":{"ha":922,"x_min":0,"x_max":0,"o":"m 726 336 b 50 489 621 0 26 143 b 728 625 50 885 621 951 l 849 806 b 28 490 590 1176 28 958 b 874 206 28 -26 529 -221 z "},"D":{"ha":994,"x_min":0,"x_max":0,"o":"m 967 531 l 967 532 b 611 993 965 769 828 993 b 310 863 464 993 394 942 l 404 685 b 651 818 404 685 472 818 b 944 529 763 818 943 783 b 186 524 940 75 190 36 l 186 532 b 190 593 186 551 188 571 b 265 972 206 724 265 853 l 29 972 b 165 532 100 900 165 683 b 60 0 165 382 60 143 l 297 0 b 192 318 226 42 201 182 b 967 529 326 -125 965 -197 l 967 529 z "},"E":{"ha":978,"x_min":0,"x_max":0,"o":"m 811 318 b 50 293 651 76 50 33 b 388 471 49 369 140 454 b 628 401 533 468 525 401 l 628 596 b 388 500 611 575 535 499 b 50 676 140 517 49 600 b 699 674 50 914 592 906 l 876 814 b 465 993 876 814 761 993 b 29 676 243 993 19 864 b 292 485 32 583 108 513 b 28 293 108 458 32 386 b 436 -17 24 104 243 -17 b 950 124 750 -17 940 124 z "},"F":{"ha":825,"x_min":0,"x_max":0,"o":"m 385 938 b 797 711 535 939 624 836 l 797 982 b 328 961 661 981 649 963 l 28 961 b 167 483 100 894 165 631 b 63 10 168 338 60 149 l 340 10 b 189 483 276 76 190 338 b 190 563 189 507 189 535 b 418 569 258 568 278 571 b 682 497 574 568 575 497 l 653 682 b 418 585 636 663 572 583 b 192 593 297 586 228 590 b 218 781 194 654 203 719 l 208 736 b 385 938 240 875 292 935 z "},"G":{"ha":900,"x_min":0,"x_max":0,"o":"m 872 333 b 346 528 864 560 565 618 l 394 357 b 853 331 710 651 853 447 b 506 160 853 182 632 167 b 49 478 375 154 60 186 b 442 821 39 653 219 810 b 760 694 576 826 692 760 l 851 885 b 442 992 679 993 565 997 b 28 478 189 979 21 753 b 535 -10 38 28 378 -17 b 872 333 761 1 881 169 z "},"H":{"ha":946,"x_min":0,"x_max":0,"o":"m 750 510 b 528 629 703 575 599 629 b 188 364 389 633 218 539 b 179 490 182 410 179 454 b 285 975 179 639 285 838 l 49 975 b 157 490 119 904 157 639 b 51 10 157 342 51 147 l 288 10 b 203 257 253 49 222 150 b 474 510 175 446 350 510 b 674 376 578 510 651 431 z m 789 494 b 894 975 789 643 894 842 l 658 975 b 767 494 729 906 767 643 b 661 10 767 346 661 154 l 897 10 b 789 494 844 83 789 346 z "},"I":{"ha":294,"x_min":0,"x_max":0,"o":"m 267 10 b 158 492 204 79 158 343 b 264 975 158 640 264 839 l 28 974 b 136 492 99 904 136 640 b 31 10 136 343 31 151 z "},"J":{"ha":465,"x_min":0,"x_max":0,"o":"m 201 975 b 311 489 292 889 311 676 b 92 -106 311 299 322 -106 b -83 -51 17 -106 -44 -65 l -83 -287 b 131 -268 -58 -287 81 -276 b 383 38 282 -242 383 -151 b 333 489 383 169 333 286 b 438 975 333 676 438 871 z "},"K":{"ha":893,"x_min":0,"x_max":0,"o":"m 617 563 b 242 542 492 617 324 575 b 757 969 406 650 754 726 l 521 969 b 160 478 568 722 215 615 l 160 493 b 264 975 160 642 264 892 l 28 975 b 138 493 99 906 138 642 b 31 10 138 344 31 92 l 267 10 b 164 393 210 64 175 244 b 596 490 168 589 464 565 b 643 11 740 408 600 126 l 879 11 b 617 563 794 163 800 482 z "},"L":{"ha":797,"x_min":0,"x_max":0,"o":"m 369 32 b 221 142 299 33 253 65 b 174 493 179 251 172 394 b 333 975 174 710 269 907 l 97 975 b 151 493 94 833 153 642 b 14 11 150 344 86 78 l 314 11 b 783 31 635 10 640 14 l 783 264 b 369 32 635 118 518 31 z m 200 206 b 194 228 197 213 196 221 z "},"M":{"ha":1338,"x_min":0,"x_max":0,"o":"m 1263 15 b 1135 344 1263 103 1185 201 b 1121 396 1131 360 1126 378 b 1096 510 1118 407 1106 450 b 843 985 1044 828 961 985 b 638 681 760 985 668 897 b 433 981 606 894 515 981 b 179 506 315 981 231 824 b 156 392 169 446 158 403 b 144 353 151 378 147 365 b 15 11 96 203 15 101 l 251 11 b 194 468 157 104 158 251 l 203 506 b 433 810 235 722 339 810 b 626 517 525 810 625 690 l 626 515 b 626 515 626 515 626 515 l 626 514 b 626 513 626 514 626 513 l 626 510 b 506 265 625 360 531 282 l 742 265 b 649 518 742 347 650 363 b 843 814 649 693 751 814 b 1076 510 938 814 1043 726 b 1086 447 1079 492 1082 469 b 1093 410 1089 433 1090 421 b 1026 15 1119 226 1111 99 z "},"N":{"ha":963,"x_min":0,"x_max":0,"o":"m 707 971 b 847 433 840 797 847 624 b 781 250 847 372 846 250 b 500 468 700 257 586 368 l 500 469 b 90 968 363 618 268 968 l 90 515 b 28 -1 90 225 28 143 l 256 -1 b 115 515 122 172 115 325 b 172 697 115 572 117 686 b 490 446 263 699 397 558 b 872 -1 614 286 707 -1 l 872 433 b 935 971 872 722 935 826 z "},"O":{"ha":911,"x_min":0,"x_max":0,"o":"m 507 989 b 28 544 361 1014 86 963 l 28 546 b 390 -17 -31 110 240 3 b 882 428 538 -42 824 8 l 882 426 b 507 989 942 865 657 969 z m 414 157 b 47 515 292 174 24 264 b 507 814 88 817 386 833 b 864 457 632 799 886 708 b 414 157 824 156 538 139 z "},"P":{"ha":879,"x_min":0,"x_max":0,"o":"m 469 993 b 106 506 115 993 106 733 b 28 -1 106 350 111 71 l 265 -1 b 160 338 265 58 200 203 b 128 514 151 371 131 439 b 128 531 128 519 128 525 l 128 540 b 829 618 139 896 829 981 b 486 411 831 475 626 393 b 264 551 360 425 264 551 l 169 411 b 851 617 396 115 842 238 b 469 993 861 960 618 993 z "},"Q":{"ha":931,"x_min":0,"x_max":0,"o":"m 821 -7 b 415 -115 654 -7 508 -76 b 58 -199 321 -154 58 -260 b 613 15 58 -74 364 -89 b 892 468 736 63 861 188 b 517 1001 950 907 664 982 b 35 529 369 1026 85 972 b 414 -4 -22 90 267 15 b 471 -10 431 -7 450 -8 b 43 -204 275 -72 43 -54 b 479 -215 43 -308 335 -215 b 903 -274 638 -215 743 -249 z m 58 528 b 517 826 100 829 396 846 b 869 469 639 811 893 721 b 414 171 829 168 535 151 b 58 528 292 186 35 276 z "},"R":{"ha":928,"x_min":0,"x_max":0,"o":"m 900 0 b 824 279 853 67 824 136 b 578 457 822 426 760 453 b 824 671 729 488 822 554 b 824 672 824 671 824 672 l 824 674 b 439 994 822 958 581 994 b 82 500 144 994 86 710 l 82 475 b 82 475 82 475 82 475 l 82 474 b 3 0 82 329 79 67 l 239 0 b 131 332 239 58 169 201 b 104 506 122 371 104 436 b 431 829 104 701 250 829 b 747 674 468 829 746 843 b 433 457 747 535 686 468 b 221 546 288 461 236 528 l 189 365 b 440 435 301 365 283 432 b 758 274 717 435 757 425 b 664 0 757 133 693 97 z "},"S":{"ha":1015,"x_min":0,"x_max":0,"o":"m 492 506 b 121 663 242 506 125 582 b 267 813 117 718 168 776 b 549 813 344 835 457 826 b 865 665 638 792 776 763 l 988 861 b 507 993 988 861 765 993 b 178 856 446 993 286 961 b 476 465 -44 588 264 467 b 910 294 778 465 913 379 b 782 161 910 244 865 194 b 476 147 683 132 578 132 b 146 306 372 161 239 211 l 28 121 b 511 -22 28 121 239 -22 b 850 114 572 -22 743 4 b 929 294 903 178 932 239 b 492 506 924 413 788 503 z "},"T":{"ha":1000,"x_min":0,"x_max":0,"o":"m 500 917 b 14 967 350 917 90 1001 l 14 726 b 489 893 83 799 338 889 l 489 650 b 385 0 489 324 385 200 l 621 0 b 511 650 490 168 511 497 l 511 893 b 986 732 660 885 847 731 l 986 972 b 500 917 915 907 650 917 z "},"U":{"ha":1006,"x_min":0,"x_max":0,"o":"m 707 967 b 810 496 799 874 807 700 b 481 179 810 274 625 179 b 151 499 335 179 150 322 b 253 968 150 703 253 856 l 28 968 b 129 499 119 875 126 703 b 481 -17 129 36 324 -12 b 831 496 636 -12 831 47 b 932 967 831 746 932 854 z "},"V":{"ha":956,"x_min":0,"x_max":0,"o":"m 769 500 b 772 522 771 507 772 515 b 928 969 811 731 928 858 l 692 969 b 746 499 789 875 783 719 b 739 464 743 486 742 475 b 493 192 706 243 586 192 b 219 460 349 192 218 278 b 264 968 218 671 311 869 l 28 968 b 197 458 157 858 194 669 b 483 -17 217 149 379 -17 b 750 361 678 -17 721 194 b 763 464 750 369 756 422 l 767 483 b 769 500 768 489 768 494 z "},"W":{"ha":1467,"x_min":0,"x_max":0,"o":"m 1203 968 b 1288 456 1285 828 1290 669 b 1071 193 1290 272 1217 193 b 765 454 925 193 764 271 b 868 968 767 667 893 835 l 632 968 b 743 456 714 840 744 669 l 743 451 l 743 451 b 467 193 742 271 610 193 b 219 454 321 193 217 271 b 264 967 217 667 282 822 l 28 967 b 197 451 126 842 194 665 b 438 -17 197 171 333 -17 b 754 363 532 -17 704 111 b 1043 -17 797 111 950 -17 b 1310 456 1147 -17 1306 104 b 1439 968 1313 669 1439 822 z "},"X":{"ha":1163,"x_min":0,"x_max":0,"o":"m 597 493 b 592 500 596 496 594 497 b 593 503 593 500 593 501 b 824 807 638 701 708 858 b 969 653 883 781 944 721 l 1135 783 b 810 993 1075 890 956 993 b 575 521 619 993 635 763 b 369 976 468 657 300 842 l 92 976 b 569 500 92 833 349 794 b 340 171 525 303 456 121 b 194 353 279 199 219 285 l 28 222 b 354 -17 89 115 207 -17 b 586 478 539 -17 528 232 b 819 10 693 340 893 149 l 1097 10 b 597 493 1097 154 854 188 z "},"Y":{"ha":1088,"x_min":0,"x_max":0,"o":"m 489 524 b 264 978 379 660 194 843 l 28 978 b 489 494 28 833 267 796 b 386 10 489 344 386 154 l 622 10 b 513 494 560 82 513 344 b 940 654 513 806 828 960 l 1060 796 b 489 524 851 1175 504 972 z "},"Z":{"ha":1021,"x_min":0,"x_max":0,"o":"m 401 32 b 269 81 336 32 289 35 b 458 474 240 185 351 364 b 904 982 601 610 904 851 l 599 982 b 54 985 307 983 178 983 l 54 749 b 524 961 210 876 388 960 b 650 907 590 961 636 958 b 458 503 678 799 564 611 b 28 10 317 365 28 138 l 322 10 b 865 13 614 8 742 14 l 865 249 b 401 32 713 122 536 33 z "},"a":{"ha":806,"x_min":0,"x_max":0,"o":"m 569 706 b 649 383 569 628 640 519 b 346 136 657 200 488 136 b 50 396 283 136 50 183 b 497 496 47 619 364 700 l 574 631 b 28 397 331 857 35 692 b 344 -4 19 69 225 -12 b 646 263 483 6 600 124 b 569 10 639 174 619 64 l 778 10 b 672 356 778 56 672 206 b 778 706 672 506 707 636 z "},"b":{"ha":788,"x_min":0,"x_max":0,"o":"m 760 369 b 426 724 756 578 633 724 b 167 579 282 724 214 646 l 250 444 b 435 579 250 444 324 543 b 738 367 532 611 738 579 b 447 119 738 156 546 119 b 144 449 271 119 144 201 l 144 497 b 236 975 153 651 236 896 l 28 975 b 122 488 97 906 121 639 l 122 468 b 447 -21 122 264 144 -21 b 760 369 567 -21 768 42 z "},"c":{"ha":757,"x_min":0,"x_max":0,"o":"m 599 251 b 340 121 599 243 526 121 b 53 376 143 121 44 251 b 360 590 58 536 179 625 b 571 471 472 568 553 489 l 685 593 b 31 378 432 858 60 767 b 363 -18 8 193 132 -18 b 729 158 363 -18 618 -32 z "},"d":{"ha":789,"x_min":0,"x_max":0,"o":"m 665 485 b 761 974 665 635 690 904 l 553 974 b 642 513 553 896 632 665 b 643 468 643 499 643 483 b 642 407 643 450 642 429 b 338 118 624 194 474 118 b 50 378 239 118 50 165 b 351 594 49 514 228 611 b 536 449 465 581 524 488 l 621 589 b 372 717 574 656 443 717 b 28 379 165 722 32 588 b 338 -22 19 51 218 -19 b 631 272 465 -25 576 119 b 549 -1 617 156 592 40 l 757 -1 b 665 465 757 78 674 313 b 665 476 665 468 665 472 z "},"e":{"ha":757,"x_min":0,"x_max":0,"o":"m 606 204 b 51 243 499 26 76 57 b 324 578 21 400 133 535 b 639 457 440 607 635 575 b 97 374 646 289 231 243 l 78 304 b 658 457 175 229 660 218 b 365 717 656 571 568 721 b 33 239 96 693 1 471 b 400 -19 51 56 236 -19 b 729 111 454 -19 606 -10 z "},"f":{"ha":576,"x_min":0,"x_max":0,"o":"m 356 857 b 493 799 390 857 447 844 l 549 931 b 356 993 476 981 394 993 b 121 803 235 993 117 951 b 140 635 122 754 131 697 b 28 644 60 638 47 642 l 28 603 b 143 611 94 608 83 611 b 167 388 154 543 164 467 b 100 1 169 238 99 85 l 310 1 b 189 388 238 69 192 238 b 182 611 188 446 179 531 l 222 611 b 458 540 378 610 351 540 l 457 729 b 222 633 440 710 376 632 l 182 633 b 356 857 189 757 226 865 z "},"g":{"ha":788,"x_min":0,"x_max":0,"o":"m 553 704 b 644 325 608 650 636 472 b 361 118 639 142 490 118 b 65 376 299 118 65 164 b 311 606 64 513 188 606 b 511 471 415 606 489 526 l 588 606 b 374 717 540 672 444 717 b 43 378 221 721 49 586 b 360 -25 35 50 240 -22 b 649 254 521 -29 625 106 l 649 218 b 472 -181 649 65 631 -150 b 100 -15 351 -197 192 -171 l 28 -176 b 432 -315 157 -315 318 -336 b 654 -99 553 -294 632 -189 b 671 218 679 6 671 56 b 760 704 671 368 760 621 z "},"h":{"ha":826,"x_min":0,"x_max":0,"o":"m 799 10 b 701 356 726 79 701 206 b 465 717 710 685 593 717 b 143 449 343 717 169 586 b 142 497 142 465 142 482 b 236 982 142 647 236 899 l 28 982 b 126 497 99 913 126 647 b 31 10 126 347 31 93 l 239 10 b 150 331 190 57 163 199 b 149 378 150 347 150 363 b 500 578 138 544 400 603 b 686 356 615 550 688 486 b 590 10 686 206 590 93 z "},"i":{"ha":267,"x_min":0,"x_max":0,"o":"m 133 788 b 236 890 190 788 236 833 b 133 993 236 947 190 993 b 31 890 76 993 31 947 b 133 788 31 833 76 788 z m 239 10 b 144 357 183 81 144 207 b 236 706 144 507 236 621 l 28 706 b 124 357 99 635 124 507 b 31 10 124 207 31 92 z "},"j":{"ha":450,"x_min":0,"x_max":0,"o":"m 319 807 b 422 910 376 807 422 853 b 319 1013 422 967 376 1013 b 217 910 263 1013 217 967 b 319 807 217 853 263 807 z m 213 713 b 313 324 285 643 313 474 b 14 -83 313 40 315 -193 l 57 -293 b 167 -282 76 -293 126 -289 b 369 -37 288 -261 369 -189 b 328 324 369 68 328 161 b 422 713 328 474 422 629 z "},"k":{"ha":763,"x_min":0,"x_max":0,"o":"m 503 204 b 249 478 414 306 389 478 b 183 464 221 478 200 472 b 635 704 294 564 632 590 l 426 704 b 149 454 478 578 218 558 l 149 500 b 236 976 149 649 236 893 l 28 976 b 122 500 99 907 122 649 b 29 10 122 351 29 93 l 238 10 b 150 375 174 61 156 231 b 231 456 151 413 164 456 b 735 0 454 456 253 -15 l 735 188 b 503 204 722 175 633 57 z "},"l":{"ha":267,"x_min":0,"x_max":0,"o":"m 239 10 b 144 488 168 82 144 338 b 236 974 144 638 236 890 l 28 974 b 122 488 99 903 122 638 b 31 10 122 338 31 94 z "},"m":{"ha":1218,"x_min":0,"x_max":0,"o":"m 1190 13 b 1094 358 1119 82 1094 208 b 928 724 1103 686 992 717 b 624 451 740 739 656 590 b 471 722 613 693 528 725 b 146 410 268 715 169 526 b 217 708 156 540 217 632 l 28 708 b 128 374 99 639 128 524 b 33 10 128 224 33 93 l 242 10 b 146 310 181 69 153 183 l 146 321 b 488 574 140 499 356 613 b 607 357 544 557 608 486 b 511 11 607 207 511 94 l 719 11 b 624 357 649 81 626 207 l 624 368 b 944 575 635 535 819 613 b 1078 358 1001 558 1079 488 b 982 13 1078 208 982 96 z "},"n":{"ha":828,"x_min":0,"x_max":0,"o":"m 800 11 b 707 357 729 81 707 207 b 482 717 715 685 601 724 b 161 428 297 707 192 542 b 236 706 176 549 236 633 l 28 706 b 136 374 99 636 136 524 b 31 10 136 224 31 93 l 239 10 b 158 351 172 75 160 210 b 514 578 167 526 417 603 b 685 357 622 550 686 486 b 592 11 685 207 592 94 z "},"o":{"ha":744,"x_min":0,"x_max":0,"o":"m 414 714 b 32 372 296 732 71 694 b 321 -17 -3 72 204 -3 b 710 306 436 -35 664 3 l 710 306 l 711 319 b 713 326 713 321 713 324 b 414 714 747 628 529 701 z m 340 110 b 49 371 243 122 31 186 b 414 588 81 589 317 603 b 696 326 511 576 714 511 b 340 110 664 108 438 96 z "},"p":{"ha":785,"x_min":0,"x_max":0,"o":"m 756 390 b 218 600 738 696 392 863 l 299 468 b 733 388 375 675 731 619 b 446 118 739 176 508 119 b 160 383 301 114 142 138 l 160 394 b 238 697 169 521 192 651 l 28 697 b 135 211 31 614 129 361 b 38 -262 135 61 114 -193 l 246 -262 b 157 211 246 -179 157 61 b 156 242 157 221 157 231 b 451 -19 185 97 293 -28 b 756 390 571 -12 775 63 z "},"q":{"ha":783,"x_min":0,"x_max":0,"o":"m 44 364 b 339 606 44 576 246 606 b 643 289 475 606 643 536 b 642 222 643 265 643 243 b 547 -231 629 69 547 -153 l 756 -229 b 660 256 685 -160 660 106 b 660 263 660 258 660 260 b 338 744 671 456 653 744 b 28 363 206 744 19 690 b 349 24 32 154 142 18 b 618 151 419 24 547 78 l 540 278 b 349 146 540 278 463 160 b 44 364 225 129 43 228 z "},"r":{"ha":690,"x_min":0,"x_max":0,"o":"m 489 722 b 156 431 361 722 222 643 b 236 706 176 544 236 638 l 28 706 b 132 357 99 638 132 503 b 129 315 132 343 131 329 b 126 297 129 310 128 303 b 36 10 107 179 36 82 l 244 10 b 149 328 178 75 153 193 b 365 583 156 479 247 574 b 564 464 431 589 538 561 l 663 607 b 489 722 646 664 581 722 z "},"s":{"ha":819,"x_min":0,"x_max":0,"o":"m 397 361 b 106 481 199 361 108 421 b 218 590 103 521 140 564 b 443 590 281 607 369 601 b 694 482 514 575 624 554 l 792 632 b 410 724 792 632 615 724 b 147 622 361 724 233 700 b 386 339 -31 424 183 339 b 728 210 625 339 729 272 b 628 111 728 172 694 136 b 386 101 550 90 467 90 b 122 218 303 111 197 149 l 28 76 b 414 -24 28 76 254 -24 b 682 76 461 -24 597 -4 b 750 210 725 124 751 168 b 397 361 746 296 633 360 z "},"t":{"ha":556,"x_min":0,"x_max":0,"o":"m 444 207 b 314 132 386 135 328 132 b 211 475 172 132 208 324 b 217 592 211 514 213 553 l 236 592 b 464 521 392 590 365 521 l 464 710 b 236 614 446 685 390 613 l 218 614 b 307 864 231 719 258 815 l 97 864 b 168 615 97 807 140 715 b 28 625 71 618 49 622 l 28 583 b 174 592 101 589 90 592 b 189 482 182 556 188 518 b 131 167 186 326 131 271 b 336 -12 131 75 178 -12 b 528 53 404 -14 494 28 z "},"u":{"ha":774,"x_min":0,"x_max":0,"o":"m 746 3 b 649 350 675 74 649 200 b 742 714 650 500 742 631 l 547 714 b 626 388 613 650 625 524 l 626 376 b 129 368 632 61 126 71 b 236 713 128 518 236 631 l 28 713 b 107 367 99 644 106 517 b 347 7 97 39 269 8 b 611 221 503 4 578 117 b 557 3 590 132 557 61 z "},"v":{"ha":733,"x_min":0,"x_max":0,"o":"m 575 369 b 578 389 575 376 576 383 b 706 710 607 539 706 631 l 504 710 b 561 389 571 644 585 540 b 554 350 558 375 557 363 b 379 153 531 193 446 153 b 185 347 276 153 183 218 b 236 708 183 497 236 626 l 28 708 b 168 346 99 640 167 496 b 372 4 182 126 299 4 b 561 278 510 4 542 158 b 571 350 561 282 565 321 b 574 364 572 354 572 360 b 575 369 574 365 574 367 z "},"w":{"ha":1093,"x_min":0,"x_max":0,"o":"m 857 704 b 940 343 903 614 942 493 b 785 147 942 214 888 147 b 567 342 682 147 565 213 b 663 704 568 492 663 601 l 454 704 b 556 343 500 614 557 493 l 556 340 l 556 340 b 358 147 556 213 460 147 b 182 342 256 147 181 213 b 236 703 181 492 236 621 l 28 703 b 171 340 99 635 169 490 b 339 -1 185 121 239 -3 b 561 288 425 -1 532 101 b 765 -1 586 101 675 -3 b 951 343 860 -3 949 94 b 1065 704 953 493 1065 619 z "},"x":{"ha":844,"x_min":0,"x_max":0,"o":"m 443 340 b 432 354 440 344 436 350 b 594 574 464 493 514 610 b 699 454 638 554 681 503 l 817 547 b 585 713 774 624 689 713 b 463 590 538 713 493 689 b 432 449 453 558 442 490 b 419 371 428 431 424 397 b 276 685 342 467 228 592 l 68 685 b 406 340 68 582 247 556 b 411 333 407 338 408 336 b 250 121 379 197 329 86 b 146 240 207 140 164 192 l 28 147 b 260 -18 71 71 156 -18 b 382 104 307 -18 351 6 b 413 246 392 136 403 204 b 425 317 417 263 419 292 b 586 -4 503 219 636 90 l 794 -4 b 443 340 794 99 626 122 z "},"y":{"ha":775,"x_min":0,"x_max":0,"o":"m 547 700 b 644 313 603 646 633 461 b 364 129 642 161 457 108 b 156 342 251 154 157 211 b 243 700 151 492 246 617 l 28 700 b 135 342 104 633 131 490 b 401 -14 135 11 278 -17 b 649 233 513 -10 621 106 l 649 224 b 479 -181 646 71 622 -151 b 121 -15 363 -197 208 -171 l 51 -176 b 440 -315 175 -315 331 -336 b 656 -99 557 -294 633 -189 b 672 232 678 0 672 83 b 747 700 675 383 750 619 z "},"z":{"ha":808,"x_min":0,"x_max":0,"o":"m 392 101 b 92 46 313 71 160 14 b 329 289 42 76 111 193 l 521 379 b 738 681 808 504 797 651 b 389 669 678 706 513 669 b 67 694 254 669 203 675 l 28 499 b 444 571 169 499 364 540 b 724 639 524 601 656 671 b 525 404 772 610 729 499 l 508 396 l 329 311 l 318 307 b 68 0 28 181 8 29 b 447 6 128 -25 324 6 b 725 -22 582 6 589 -3 l 781 186 b 392 101 639 186 472 132 z "},".":{"ha":233,"x_min":0,"x_max":0,"o":"m 117 0 b 219 103 174 0 219 46 b 117 206 219 160 174 206 b 14 103 60 206 14 160 b 117 0 14 46 60 0 z "},",":{"ha":257,"x_min":0,"x_max":0,"o":"m 243 104 l 243 107 b 140 206 240 163 196 206 b 38 103 83 206 38 160 b 140 0 38 46 83 0 b 228 49 178 0 210 19 b 14 -74 211 -19 157 -89 l 14 -171 b 243 96 153 -171 238 -28 b 243 103 243 99 243 100 z "},"-":{"ha":785,"x_min":0,"x_max":0,"o":"m 756 526 b 521 431 739 507 675 429 b 356 432 418 432 378 432 b 264 433 336 432 308 433 b 28 504 108 435 135 504 l 29 315 b 264 411 46 335 110 413 b 410 410 343 410 385 410 b 521 408 431 410 460 408 b 757 338 676 407 650 338 z "}}}
